<?xml version="1.0" encoding="utf-8"?>
<!-- Generator: Adobe Illustrator 19.0.1, SVG Export Plug-In . SVG Version: 6.00 Build 0)  -->
<svg version="1.1" id="Icons" xmlns="http://www.w3.org/2000/svg" xmlns:xlink="http://www.w3.org/1999/xlink" x="0px" y="0px"
	 viewBox="173 365.4 41.7 40.6" style="enable-background:new 173 365.4 41.7 40.6;" xml:space="preserve">
<style type="text/css">
	.st0{fill:#4D8208;}
</style>
<path class="st0" d="M211.3,387.7c-0.9,0-1.7,0.3-2.2,0.9l-1.9-0.9c0.5-1.4,0.8-2.8,0.8-4.3c0-2.9-1-5.5-2.6-7.6l3.9-4
	c0.3,0.1,0.6,0.2,1,0.2c1.8,0,3.3-1.5,3.3-3.3s-1.5-3.3-3.3-3.3s-3.3,1.5-3.3,3.3c0,0.6,0.2,1.2,0.5,1.6l-3.6,3.8
	c-2.2-2-5.2-3.2-8.4-3.2c-2.8,0-5.3,0.9-7.4,2.4l-1.2-1.5c0.3-0.5,0.5-1,0.5-1.6c0-1.8-1.5-3.3-3.3-3.3s-3.3,1.5-3.3,3.3
	s1.5,3.3,3.3,3.3c0.3,0,0.7-0.1,1-0.2l1.2,1.6c-2.1,2.2-3.4,5.3-3.4,8.6c0,1.6,0.3,3.1,0.8,4.5l-5.4,3.2c-0.6-0.4-1.2-0.7-2-0.7
	c-1.8,0-3.3,1.5-3.3,3.3s1.5,3.3,3.3,3.3s3.3-1.5,3.3-3.3c0-0.2,0-0.4-0.1-0.6l5.2-3.1c2.2,3.6,6.2,6,10.7,6c0.1,0,0.3,0,0.4,0
	l1,3.9c-0.8,0.6-1.4,1.6-1.4,2.7c0,1.8,1.5,3.3,3.3,3.3s3.3-1.5,3.3-3.3c0-1.7-1.2-3-2.9-3.2l-0.9-3.7c3.4-0.8,6.3-2.9,8-5.8
	l1.9,0.9c0,0.1,0,0.2,0,0.2c0,1.8,1.5,3.3,3.3,3.3s3.3-1.5,3.3-3.3S213.1,387.7,211.3,387.7z M202.7,390.6l-0.7-4.7l-3.7-1.6l0,0
	h-0.1l-2,3v-0.1l-0.2-1.8l0.4-1.2v-0.1c-0.3,0.1-0.6,0.2-0.9,0.2c-0.3,0-0.6-0.1-0.9-0.2v0.1l0.4,1.2l-0.2,1.8l-1.9-2.8h-0.1l0,0
	l-3.7,1.6l-0.7,4.9c-2-1.9-3.2-4.5-3.2-7.4c0-5.6,4.6-10.2,10.2-10.2c5.6,0,10.2,4.6,10.2,10.2C205.6,386.2,204.5,388.7,202.7,390.6
	z M198.6,380.5c0,0.6-0.4,1.2-0.6,1.2c-0.1,0-0.1,0-0.1,0v0.1c-0.2,1.3-1.2,2.3-2.4,2.3c-1.1,0-2.1-0.9-2.4-2.3v-0.1
	c-0.2,0-0.6-0.6-0.6-1.2c-0.1-0.7-0.1-1.1,0-1.2c0.1,0,0.2,0.1,0.3,0.2c-0.1-0.2-0.1-0.4-0.1-0.6c0-1.7,1.2-3.1,2.8-3.1
	c1.5,0,2.8,1.4,2.8,3.1c0,0.2,0,0.4-0.1,0.6c0.1-0.1,0.2-0.2,0.3-0.2C198.6,379.4,198.7,379.7,198.6,380.5z"/>
</svg>
