<?xml version="1.0" encoding="utf-8"?>
<!-- Generator: Adobe Illustrator 19.0.1, SVG Export Plug-In . SVG Version: 6.00 Build 0)  -->
<svg version="1.1" id="Icons" xmlns="http://www.w3.org/2000/svg" xmlns:xlink="http://www.w3.org/1999/xlink" x="0px" y="0px"
	 viewBox="-285 377.1 39.7 38.9" style="enable-background:new -285 377.1 39.7 38.9;" xml:space="preserve">
<style type="text/css">
	.st0{fill:#4D8208;stroke:#4D8208;stroke-width:0.3481;stroke-miterlimit:10;}
	.st1{fill:#8DC63F;stroke:#8EC640;stroke-miterlimit:10;}
	.st2{fill:#FFFFFF;}
</style>
<path id="RGBColor-77-130-8" class="st0" d="M-247.9,389.4h-9.4l0.6-4l2.4-1l1.2,1.8l0.2-1.1l-0.3-0.7v-0.1c0.2,0.1,0.4,0.1,0.6,0.1
	s0.4,0,0.6-0.1v0.1l-0.3,0.7l0.1,1.1v0.1l1.3-1.9h0.1l2.4,1L-247.9,389.4z M-279.4,407.6c0.2,0.9,0.8,1.5,1.5,1.5
	c0.7,0,1.4-0.6,1.5-1.5c0.1,0,0.4-0.4,0.4-0.8s0-0.7,0-0.7s-0.1,0.1-0.2,0.1l-0.1,0.1v-0.1c0.3-0.2,0.3-0.3,0.3-0.4
	c0-1.1-0.8-2-1.8-2s-1.8,0.9-1.8,2c0,0.1,0,0.2,0.1,0.4v0.1l-0.1-0.1c-0.1-0.1-0.1-0.1-0.2-0.1c0,0.1-0.1,0.3,0,0.7
	C-279.8,407.2-279.5,407.6-279.4,407.6z M-276.1,409.4l-1.3,1.9v-0.1l-0.1-1.1l0.3-0.7v-0.1c-0.2,0.1-0.4,0.1-0.6,0.1
	c-0.2,0-0.4,0-0.6-0.1v0.1l0.3,0.7l-0.2,1.1l-1.2-1.8l-2.4,1l-0.6,4h9.4l-0.6-4L-276.1,409.4z M-251.8,395c0.3-0.2,0.5-0.4,0.8-0.6
	c0-0.8,0-1-0.2-1.4c-0.2-0.3-0.3-0.6-0.5-0.9c-0.1-0.3-0.2-0.4-0.6-0.4c-0.2,0-0.4,0-0.5,0c-0.2,0-0.4,0.1-0.4,0.4
	c0,0.2-0.1,0.5-0.1,0.7c0,0.4-0.3,0.5-0.6,0.6s-0.7,0.2-1,0.3c-0.2,0.1-0.3,0.2-0.4,0.3c-0.1,0.3-0.2,0.6-0.2,1
	c-0.1,0-0.3,0-0.5,0.1c-0.3,0.1-0.4,0.2-0.4,0.5c0,0.1,0,0.2-0.1,0.2c-0.2,0.2-0.5,0.4-0.7,0.6c0-0.1,0.1-0.2,0.1-0.2
	c0.2-0.3,0.1-0.4-0.1-0.7c-0.1-0.1-0.1-0.1-0.2-0.2c-0.2-0.1-0.3-0.3-0.2-0.5s-0.1-0.4-0.3-0.5c-0.1-0.1-0.3-0.1-0.2-0.3
	c0-0.2-0.2-0.4-0.4-0.4c-0.2,0-0.3,0-0.5,0c-0.3,0-0.6,0-0.9-0.1c-0.2-0.1-0.5,0-0.8,0c0,0,0-0.1,0.1-0.1c0.1-0.3,0-0.6-0.3-0.6
	c-0.1,0-0.2,0-0.3,0c-0.4,0-0.7,0-1.1-0.2c-0.1-0.1-0.3-0.1-0.4-0.1c-1.6-0.1-3.2-0.2-4.8-0.2c-1.2,0-2.3-0.4-3.5-0.6
	c-0.8-0.2-1.7-0.4-2.5-0.5c-0.3-0.1-0.4,0-0.6,0.3c-0.2-0.2-0.4-0.3-0.6-0.5c-0.1,0-0.1,0-0.2,0c-0.5,0.2-0.3,0.6-0.3,0.9
	c0,0.2,0.1,0.5,0.1,0.7s0,0.4-0.1,0.5c-0.1,0.3-0.3,0.7-0.5,1c-0.2,0.4-0.3,0.8-0.3,1.3c0,0.3-0.2,0.5-0.4,0.7c0,0.1,0,0.1,0,0.2
	c0.1,0.1,0.1,0.3,0.2,0.4c0.1,0.3,0.1,0.7,0.3,1c0.2,0.4,0.1,0.8,0.2,1.3c0.1,0.4,0.1,0.9,0.2,1.3c0,0.1,0.2,0.3,0.3,0.4
	c0.2,0.2,0.5,0.2,0.8,0.4c0.1,0.1,0.2,0.2,0.2,0.3c0.1,0.3,0.2,0.5,0.6,0.6c1.3,0.4,2.5,0.9,3.8,1.4c0.3,0.1,0.5,0.1,0.7-0.1
	c0.1-0.1,0.5-0.1,0.6,0.1c0.2,0.3,0.3,0.5,0.4,0.8c0.1,0.3,0.2,0.4,0.5,0.6c0.1,0,0.1,0.1,0.2,0.1c0.6,0.3,0.6,0.3,1.2,0
	c0.1,0.1,0.2,0.2,0.3,0.3c0.2,0.4,0.5,0.7,0.7,1.1c0.1,0.2,0.3,0.4,0.6,0.5c0.3,0.1,0.6,0.2,0.9,0.4h0.1c0.4-0.2,0.4-0.3,0.3-0.8
	c-0.1-0.4,0-0.7,0.4-0.9c0.3-0.1,0.5-0.3,0.8-0.4c0.3-0.2,0.6-0.2,1-0.2c0.5,0,1,0.1,1.5,0.1s0.6-0.1,0.6-0.6c0.4,0,0.7-0.2,1.1,0
	c0.6,0.4,0.6,0.4,1.1,0c0.3,0.2,0.5,0.3,0.4,0.7c0,0.3,0.1,0.5,0.3,0.7c0.3,0.3,0.6,0.6,0.9,1c0.2,0.2,0.4,0.2,0.6,0.1
	c0.6-0.4,0.8-1.1,0.4-1.8c-0.3-0.4-0.6-0.9-0.8-1.3c-0.1-0.2-0.2-0.5-0.2-0.7c0-0.1,0.1-0.2,0.1-0.2c0.6-0.8,1.2-1.6,1.8-2.4
	c0.2-0.3,0.2-0.5,0.1-0.8c-0.2-0.3-0.3-0.5-0.5-0.8c-0.1-0.2-0.1-0.3,0-0.5c0.4,0,0.6-0.1,0.7-0.5c0.1-0.2,0.1-0.5,0.2-0.7
	c0-0.1,0.1-0.3,0.3-0.3c0.2-0.1,0.5-0.2,0.7-0.3c0.5-0.2,0.6-0.6,0.1-0.9c-0.2-0.1-0.3-0.3-0.2-0.5C-251.9,395-251.8,395-251.8,395z
	 M-250.8,381.1l-0.1,0.1v-0.1c0-0.1,0.1-0.3,0.1-0.4c0-1.1-0.8-2-1.8-2s-1.8,0.9-1.8,2c0,0.1,0,0.2,0.1,0.4v0.1l-0.1-0.1
	c-0.1-0.1-0.1-0.1-0.2-0.1c0,0.1-0.1,0.3,0,0.7c0.1,0.5,0.3,0.8,0.5,0.8c0.2,0.9,0.9,1.5,1.6,1.5s1.4-0.6,1.5-1.5
	c0.1,0,0.4-0.4,0.4-0.8s0-0.7,0-0.7S-250.7,381.1-250.8,381.1z"/>
<path id="RGBColor-141-198-63" class="st1" d="M-247,393.8c0.2,1,0.4,2.6,0.2,4.4s-0.6,3.9-1.6,6c-0.9,2.1-2.4,4.1-4.2,5.8
	c-1.9,1.6-4,2.9-6.2,3.7c-2.2,0.8-4.3,1.1-6.2,1.1s-3.4-0.3-4.5-0.5c-0.5-0.1-0.9-0.2-1.2-0.3c-0.3-0.1-0.4-0.1-0.4-0.1l0.4-1.1
	c0,0,0.1,0,0.4,0.1c0.2,0.1,0.6,0.2,1.1,0.3c1,0.3,2.5,0.5,4.2,0.5c1.7-0.1,3.8-0.4,5.8-1.1c2.1-0.7,4.1-1.9,5.8-3.5
	c1.7-1.5,3.1-3.4,4-5.4s1.3-4,1.5-5.7c0.2-1.8,0-3.2-0.1-4.2c0-0.3-0.1-0.5-0.1-0.7c0-0.1,0-0.1,0-0.2s0-0.1,0-0.1l-0.8,0.2l0.2-0.5
	c0.1-0.1,0.1-0.3,0.2-0.5c0.1-0.3,0.3-0.7,0.4-1.1c0.3,0.3,0.6,0.5,0.9,0.8c0.2,0.1,0.3,0.3,0.5,0.4l0.4,0.4l-0.8,0.2c0,0,0,0,0,0.1
	c0,0,0,0.1,0,0.2C-247.1,393.2-247,393.4-247,393.8z M-261.1,379.9c0.5,0.1,0.9,0.3,1.1,0.3c0.3,0.1,0.4,0.1,0.4,0.1l0.4-1.1
	c0,0-0.1,0-0.4-0.1c-0.3-0.1-0.7-0.2-1.2-0.3c-1.1-0.2-2.6-0.5-4.5-0.5c-1.9,0-4.1,0.3-6.2,1.1c-2.2,0.8-4.4,2.1-6.2,3.7
	c-1.8,1.7-3.3,3.7-4.3,5.8c-1,2.1-1.4,4.2-1.6,6.1c-0.2,1.8,0,3.4,0.2,4.4c0.1,0.7,0.2,1,0.2,1l-0.8,0.2l0.4,0.4l0.5,0.4
	c0.3,0.3,0.6,0.5,0.9,0.8c0.2-0.2,0.3-0.6,0.5-1c0.1-0.2,0.1-0.4,0.2-0.5l0.2-0.5l-0.8,0.2c0,0-0.1-0.4-0.2-1
	c-0.1-1-0.3-2.4-0.2-4.2c0.2-1.7,0.6-3.7,1.5-5.7c0.9-2,2.3-3.9,4-5.5c1.7-1.6,3.8-2.8,5.8-3.5c2.1-0.7,4.1-1,5.9-1.1
	C-263.5,379.4-262.1,379.7-261.1,379.9z"/>
<path class="st2" d="M-263.3,396.5c-0.3-0.2-0.5-0.4-0.8-0.5c-0.3-0.2-0.6-0.3-0.8-0.4s-0.4-0.3-0.6-0.4c-0.1-0.1-0.2-0.3-0.2-0.5
	c0-0.3,0-0.5,0.2-0.6c0.2-0.1,0.4-0.2,0.7-0.2c0.3,0,0.5,0.1,0.7,0.2c0.2,0.1,0.4,0.2,0.6,0.4l0.8-0.9c-0.3-0.2-0.5-0.5-0.8-0.6
	c-0.3-0.1-0.6-0.2-1-0.3v-1.2h-1.2v1.2c-0.5,0.2-1,0.4-1.3,0.8c-0.3,0.4-0.5,0.9-0.5,1.5c0,0.3,0,0.7,0.2,0.9
	c0.2,0.2,0.4,0.4,0.6,0.6c0.3,0.2,0.5,0.4,0.8,0.5c0.3,0.1,0.6,0.3,0.8,0.4s0.4,0.3,0.6,0.4c0.1,0.1,0.2,0.3,0.2,0.5
	c0,0.3,0,0.5-0.2,0.6c-0.1,0.1-0.4,0.2-0.7,0.2c-0.2,0-0.5-0.1-0.8-0.2c-0.3-0.1-0.6-0.3-0.9-0.5l-0.8,1.2c0.3,0.2,0.6,0.4,1,0.6
	s0.7,0.3,1.1,0.3v1.2h1.2v-1.2c0.6-0.1,1.1-0.4,1.4-0.8c0.3-0.4,0.5-0.9,0.5-1.5c0-0.4,0-0.7-0.2-1
	C-262.9,396.9-263.1,396.6-263.3,396.5z"/>
</svg>
