<?xml version="1.0" encoding="utf-8"?>
<!-- Generator: Adobe Illustrator 19.0.1, SVG Export Plug-In . SVG Version: 6.00 Build 0)  -->
<svg version="1.1" id="Icons" xmlns="http://www.w3.org/2000/svg" xmlns:xlink="http://www.w3.org/1999/xlink" x="0px" y="0px"
	 viewBox="344.1 675.4 39.7 32.8" style="enable-background:new 344.1 675.4 39.7 32.8;" xml:space="preserve">
<style type="text/css">
	.st0{fill:#4D8208;}
</style>
<path class="st0" d="M363.6,682.4c1.9,0,3.5-1.6,3.5-3.5s-1.6-3.5-3.5-3.5s-3.5,1.6-3.5,3.5S361.7,682.4,363.6,682.4z M366.9,702.9
	h-2.2l-1.1,1.3l-1.1-1.3h-2.2c-0.9,0-1.6,0.8-1.6,1.7v3.5l9.8,0.1v-3.6C368.5,703.7,367.8,702.9,366.9,702.9z M382.2,702.9H380
	l-1.1,1.3l-1.1-1.3h-2.2c-0.9,0-1.6,0.8-1.6,1.7v3.5l9.8,0.1v-3.6C383.8,703.7,383.1,702.9,382.2,702.9z M352.3,702.9h-2.2l-1.1,1.3
	l-1.1-1.3h-2.2c-0.9,0-1.6,0.8-1.6,1.7v3.5l9.8,0.1v-3.6C353.9,703.7,353.2,702.9,352.3,702.9z M345.5,699.1c0-1.7,1.2-3.2,2.9-3.5
	v-4.2H363v-3.5h-4.3v-3.5c0-0.9,0.7-1.7,1.6-1.7h2.2l1.1,1.3l1.1-1.3h2.2c0.9,0,1.6,0.8,1.6,1.7v3.6h-4.3v3.5h15.3v4.2
	c1.6,0.3,2.9,1.7,2.9,3.5c0,1.9-1.6,3.5-3.5,3.5s-3.5-1.6-3.5-3.5c0-1.7,1.2-3.2,2.9-3.5v-2.9h-14v2.9c1.6,0.3,2.9,1.7,2.9,3.5
	c0,1.9-1.6,3.5-3.5,3.5s-3.5-1.6-3.5-3.5c0-1.7,1.2-3.2,2.9-3.5v-2.9h-13.3v2.9c1.6,0.3,2.9,1.7,2.9,3.5c0,1.9-1.6,3.5-3.5,3.5
	S345.5,701,345.5,699.1z"/>
</svg>
