<?xml version="1.0" encoding="utf-8"?>
<!-- Generator: Adobe Illustrator 19.0.1, SVG Export Plug-In . SVG Version: 6.00 Build 0)  -->
<svg version="1.1" id="Icons" xmlns="http://www.w3.org/2000/svg" xmlns:xlink="http://www.w3.org/1999/xlink" x="0px" y="0px"
	 viewBox="-279 381.7 52.7 31.3" style="enable-background:new -279 381.7 52.7 31.3;" xml:space="preserve">
<style type="text/css">
	.st0{fill:#8DC63F;}
	.st1{fill:#4D8208;}
	.st2{fill:#FFFFFF;}
</style>
<path id="RGBColor-141-198-63" class="st0" d="M-238.5,391.5c-2.5-0.3-4.9-0.1-6.9,0.5v7.3c0,2.8-1.6,5.2-3.8,6.4c2,1.7,4.8,3,8,3.5
	c2.4,2.6,5.4,4,8.2,3.5c-1.5-0.6-3-1.8-4.3-3.3c5.7-0.3,10.2-3.3,10.7-7.5C-226.1,397-231.4,392.3-238.5,391.5z M-241.8,402.6
	c-0.9,0-1.6-0.7-1.6-1.6s0.7-1.6,1.6-1.6c0.9,0,1.6,0.7,1.6,1.6C-240.2,401.9-240.9,402.6-241.8,402.6z M-237,402.6
	c-0.9,0-1.6-0.7-1.6-1.6s0.7-1.6,1.6-1.6c0.9,0,1.6,0.7,1.6,1.6C-235.4,401.9-236.1,402.6-237,402.6z M-232.2,402.6
	c-0.9,0-1.6-0.7-1.6-1.6s0.7-1.6,1.6-1.6s1.6,0.7,1.6,1.6C-230.7,401.9-231.4,402.6-232.2,402.6z"/>
<path id="RGBColor-77-130-8" class="st1" d="M-252.8,381.9h-20.8c-2.9,0-5.2,2.3-5.2,5.2v12.2c0,2.9,2.3,5.2,5.2,5.2h7.3
	c-1.8,2.1-3.9,3.8-6.1,4.7c3.9,0.8,8.1-1.1,11.4-4.7h8.3c2.9,0,5.2-2.3,5.2-5.2v-12.2C-247.5,384.3-249.9,381.9-252.8,381.9z"/>
<path class="st2" d="M-249.3,392.8l-2.6-0.4l-1.2-2.4l-1.2,2.4l-2.6,0.4l1.9,1.8l-0.5,2.7l2.4-1.3l2.3,1.3l-0.4-2.7L-249.3,392.8z
	 M-269.3,392.8l-2.6-0.4l-1.2-2.4l-1.2,2.4l-2.6,0.4l1.9,1.8l-0.5,2.7l2.4-1.3l2.3,1.3l-0.4-2.7L-269.3,392.8z M-258.2,391.6
	l-3.4-0.5l-1.6-3.1l-1.5,3.1l-3.5,0.5l2.5,2.5l-0.6,3.4l3.1-1.6l3.1,1.6l-0.6-3.4L-258.2,391.6z"/>
</svg>
