<?xml version="1.0" encoding="utf-8"?>
<!-- Generator: Adobe Illustrator 19.0.1, SVG Export Plug-In . SVG Version: 6.00 Build 0)  -->
<svg version="1.1" id="Icons" xmlns="http://www.w3.org/2000/svg" xmlns:xlink="http://www.w3.org/1999/xlink" x="0px" y="0px"
	 viewBox="409.5 200.8 30.3 34.1" style="enable-background:new 409.5 200.8 30.3 34.1;" xml:space="preserve">
<style type="text/css">
	.st0{fill:#4D8208;}
</style>
<path id="RGBColor-77-130-8" class="st0" d="M427.8,219.4c0-0.2-0.2-0.6-1.5-1.1c-1.3-0.4-3-1.1-3-3c0-1.5,1-2.6,2.6-3v-1.5h2v1.3
	c1,0,1.6,0.3,2.1,0.5l0.3,0.1l-0.6,2.3l-0.2-0.1c-0.1,0-0.2-0.1-0.4-0.1c-0.4-0.2-1-0.4-1.7-0.4c-0.7,0-1,0.2-1,0.6
	c0,0.3,0.6,0.6,1.7,1.1c2,0.6,2.8,1.6,2.6,3.1c0,1.5-1,2.7-2.7,3.1v1.7h-2v-1.5c-0.9-0.1-1.8-0.4-2.5-0.7l-0.2-0.1l0.6-2.3l0.3,0.2
	c0.5,0.3,1.4,0.7,2.5,0.7C427.3,220.1,427.8,219.8,427.8,219.4z M411.3,211.2h0.7v3.8h2.6v-3.8h0.8c0.5,0.6,1.3,1,2.1,1
	c1.6,0,2.8-1.3,2.8-2.8s-1.3-2.8-2.8-2.8c-0.9,0-1.6,0.4-2.1,1h-4.1c-1,0-1.8,0.8-1.8,1.8S410.3,211.2,411.3,211.2z M411.3,219.6
	h0.7v3.9h2.6v-3.9h0.7c0.5,0.7,1.3,1.1,2.2,1.1c1.6,0,2.8-1.3,2.8-2.8s-1.3-2.8-2.8-2.8c-0.8,0-1.5,0.3-2.1,0.9h-4.1
	c-1,0-1.8,0.8-1.8,1.8S410.3,219.6,411.3,219.6z M436.8,200.8H415c-1.6,0-2.9,1.3-2.9,2.9v2.9h2.6v-2.9c0-0.1,0.2-0.3,0.3-0.3h21.9
	c0.1,0,0.3,0.2,0.3,0.3V232c0,0.1-0.2,0.3-0.3,0.3H415c-0.1,0-0.3-0.2-0.3-0.3v-3.9h0.7c0.5,0.6,1.3,1,2.1,1c1.6,0,2.8-1.3,2.8-2.8
	s-1.3-2.8-2.8-2.8c-0.9,0-1.6,0.4-2.1,1h-4.1c-1,0-1.8,0.8-1.8,1.8s0.8,1.8,1.8,1.8h0.8v3.9c0,1.6,1.3,2.9,2.9,2.9h21.9
	c1.6,0,2.9-1.3,2.9-2.9v-28.3C439.8,202.1,438.5,200.8,436.8,200.8z"/>
</svg>
