<?xml version="1.0" encoding="utf-8"?>
<!-- Generator: Adobe Illustrator 19.0.1, SVG Export Plug-In . SVG Version: 6.00 Build 0)  -->
<svg version="1.1" id="Icons" xmlns="http://www.w3.org/2000/svg" xmlns:xlink="http://www.w3.org/1999/xlink" x="0px" y="0px"
	 viewBox="-287 369.9 35.8 55.1" style="enable-background:new -287 369.9 35.8 55.1;" xml:space="preserve">
<style type="text/css">
	.st0{fill:#4D8208;}
	.st1{fill:#8DC63F;}
</style>
<path id="RGBColor-77-130-8" class="st0" d="M-275.5,381.8c0-3.4,2.8-6.3,6.3-6.3c3.4,0,6.3,2.8,6.3,6.3c0,3.4-2.8,6.3-6.3,6.3
	C-272.6,388.1-275.5,385.2-275.5,381.8z M-283.5,398.9L-283.5,398.9c-0.4-0.5-0.7-1-1.1-1.5l-0.3-0.4l-0.3,0.3
	c-0.3,0.3-0.4,0.5-0.5,0.7c-0.5,1-0.2,2.2,0.6,2.9l0.1,0.1c0.5,0.5,1.2,0.8,1.8,0.8c0.5,0,1-0.1,1.4-0.4l0.4-0.2l-0.3-0.3
	C-282.5,400.1-283,399.5-283.5,398.9z M-264.2,388h-3l-1.9,1.9l-1.9-1.9h-3c-1,0-2.2,0.5-3,1.2l-4.1,4.1l0.1,0.2
	c0.4,0.9,0.9,1.6,1.4,2.4c0.4,0.5,0.8,1,1.4,1.5l0.2,0.2l2-2v3.5l0.4,0.2c0.1,0.1,0.3,0.2,0.4,0.3l0.1,0.1l1.6-0.5l-0.5,1.1l0.4,0.1
	c1.4,0.5,2.8,0.7,4.3,0.7c2.4,0,4.9-0.7,7.1-2l0.2-0.1v-3.4l1.9,1.9l0.2-0.2c1.1-1.1,2-2.3,2.7-3.7l0.1-0.2l-4.1-4.1
	C-261.9,388.6-263.2,388-264.2,388z M-275.4,404.9l-0.3-0.1l-0.2,0.5v16c0,1.8,1.5,3.3,3.3,3.3s3.3-1.5,3.3-3.3V411
	c0-0.2,0.2-0.4,0.4-0.4c0.2,0,0.4,0.2,0.4,0.4v10.3c0,1.8,1.5,3.3,3.3,3.3s3.3-1.5,3.3-3.3v-16.7l-0.5,0.2
	C-266.6,406.4-271.1,406.4-275.4,404.9z M-253.1,397.3l-0.4-0.4l-0.2,0.4c-0.8,1.2-1.7,2.4-2.7,3.4l-0.3,0.3l0.3,0.2
	c0.5,0.4,1.1,0.6,1.7,0.6c0.7,0,1.3-0.3,1.8-0.8l0.1-0.1C-252.1,400-252.1,398.3-253.1,397.3z"/>
<path id="RGBColor-141-198-63" class="st1" d="M-261.8,401.9l0.9-3.7l0.4,0.5l0.4-0.3c3-2.6,4.7-6.2,4.9-10l2.1,2l1.4-2.3
	c-0.1,5-2.3,9.8-6.3,13.2l-0.4,0.3l0.4,0.5L-261.8,401.9z M-280.5,373.5l0.4,0.5l-0.4,0.3c-4,3.4-6.2,8.2-6.3,13.2l1.5-2.4l2.1,2
	c0.1-3.8,1.9-7.4,4.9-10l0.4-0.3l0.4,0.5l0.8-3.7L-280.5,373.5z M-264.1,374.7l0.5,0.2l-0.2,0.4l3.6-1l-1.8-3.2l-0.2,0.6l-0.5-0.2
	c-5-2-10.6-1.6-15.3,1.2l2.6,0.1l-0.7,2.9C-272.5,373.5-268.1,373.2-264.1,374.7z M-276.1,404l0.5,0.2c5,2,10.6,1.6,15.3-1.2
	l-2.6-0.1l0.7-2.9c-3.7,2.1-8.1,2.4-12,0.9l-0.5-0.2l0.2-0.4l-3.6,1l1.8,3.3L-276.1,404z M-251.8,385.7l-0.1-0.5
	c-0.4-2.9-1.6-5.7-3.4-8.2c-1.3-1.6-2.8-3-4.5-4.1l1.1,1.9l-3.2,0.9c1.5,0.9,2.9,2.1,3.9,3.5c1.4,2,2.4,4.1,2.8,6.4l0.1,0.5
	l-0.8,0.1l0.7,0.7l2,2l2-3.3L-251.8,385.7z M-286.6,390l0.1,0.5c0.4,2.9,1.6,5.7,3.5,8.1c1.3,1.6,2.8,3,4.5,4.1l-1.1-1.9l3.2-0.9
	c-1.5-0.9-2.9-2.1-3.9-3.5c-1.4-2-2.4-4.1-2.8-6.4l-0.1-0.5l0.7-0.1l-0.6-0.6l-2-2l-2,3.3L-286.6,390z"/>
<path id="RGBColor-86-138-45" class="st0" d="M-283.4,396.9c1.3,0,2.3,1,2.3,2.3s-1,2.3-2.3,2.3s-2.3-1-2.3-2.3
	S-284.6,396.9-283.4,396.9z M-255,396.9c1.3,0,2.3,1,2.3,2.3s-1,2.3-2.3,2.3s-2.3-1-2.3-2.3S-256.2,396.9-255,396.9z"/>
</svg>
