<?xml version="1.0" encoding="utf-8"?>
<!-- Generator: Adobe Illustrator 19.0.1, SVG Export Plug-In . SVG Version: 6.00 Build 0)  -->
<svg version="1.1" id="Icons" xmlns="http://www.w3.org/2000/svg" xmlns:xlink="http://www.w3.org/1999/xlink" x="0px" y="0px"
	 viewBox="43.5 706.5 36.4 38.9" style="enable-background:new 43.5 706.5 36.4 38.9;" xml:space="preserve">
<style type="text/css">
	.st0{fill:#8DC63F;}
	.st1{fill:#4D8208;}
</style>
<path id="RGBColor-141-198-63" class="st0" d="M78.5,725h-1.9v18.7c0,0.8-0.7,1.4-1.4,1.4h-2.7c-0.8,0-1.4-0.7-1.4-1.4V725h-1.9
	c-0.9,0-1.3-0.6-0.7-1.4l4.4-6.2c0.5-0.8,1.4-0.8,2,0l4.4,6.2C79.9,724.4,79.6,725.1,78.5,725z M60.7,732.9H58
	c-0.7,0-1.4,0.6-1.4,1.4v3.5v0.6v5.4c0,0.7,0.6,1.4,1.4,1.4h2.7c0.7,0,1.4-0.6,1.4-1.4v-5.4v-0.6v-3.5
	C62.1,733.5,61.5,732.9,60.7,732.9z M68,728.5h-2.7c-0.7,0-1.4,0.6-1.4,1.4v1.7v1v11.3c0,0.7,0.6,1.4,1.4,1.4H68
	c0.7,0,1.4-0.6,1.4-1.4v-11.3v-1v-1.7C69.3,729.1,68.7,728.5,68,728.5z"/>
<path id="RGBColor-77-130-8" class="st1" d="M45.5,711.4c0-2.7,2.2-4.9,4.9-4.9s4.9,2.2,4.9,4.9s-2.2,4.9-4.9,4.9
	S45.5,714.1,45.5,711.4z M63.8,716.4H51.2v0.4l-1,1.7l-1-1.7v-0.4H46c-1.3,0-2.5,1.1-2.5,2.5v10.8c0,1.2,1,2.3,2.2,2.5V743
	c0,1.3,1.1,2.5,2.5,2.5c0.9,0,1.8-0.6,2.2-1.4c0.4,0.8,1.3,1.4,2.2,1.4c1.3,0,2.5-1.1,2.5-2.5v-21.7h8.8c1.3,0,2.5-1.1,2.5-2.5
	C66.3,717.4,65.2,716.4,63.8,716.4z"/>
</svg>
