<?xml version="1.0" encoding="utf-8"?>
<!-- Generator: Adobe Illustrator 19.0.1, SVG Export Plug-In . SVG Version: 6.00 Build 0)  -->
<svg version="1.1" id="Icons" xmlns="http://www.w3.org/2000/svg" xmlns:xlink="http://www.w3.org/1999/xlink" x="0px" y="0px"
	 viewBox="398.3 623.8 44.9 31.6" style="enable-background:new 398.3 623.8 44.9 31.6;" xml:space="preserve">
<style type="text/css">
	.st0{fill:#4D8208;}
	.st1{fill:#FFFFFF;}
	.st2{fill:#4D8208;stroke:#4D8208;stroke-width:0.2891;stroke-miterlimit:10;}
</style>
<path id="RGBColor-77-130-8" class="st0" d="M442.3,632.5c-0.2,0.2-0.5,0.5-0.9,0.7c-0.2,0.1-0.4,0.3-0.5,0.4c0,0,0,0,0,0
	c0,0-0.1,0.1-0.1,0.2c0,0.2,0.1,0.3,0.2,0.4c0.6,0.5,0.7,0.9,0.7,1.1c0,0.3-0.2,0.7-0.9,1c-0.5,0.2-0.9,0.4-1.3,0.6
	c-0.1,0.1-0.2,0.3-0.3,0.5c-0.2,0.3-0.2,0.7-0.3,1l-0.1,0.2c-0.2,0.9-0.5,1.1-1.3,1.1c-0.1,0.1,0,0.3,0.1,0.4
	c0.1,0.2,0.2,0.4,0.3,0.6c0.1,0.3,0.3,0.5,0.5,0.8c0.4,0.7,0.4,1.2-0.1,1.8c-0.5,0.7-1.1,1.4-1.6,2.1c-0.5,0.7-1.1,1.4-1.6,2.1
	c-0.1,0.1-0.1,0.2-0.1,0.2c0.1,0.4,0.2,0.7,0.4,1.1c0.2,0.4,0.5,0.7,0.7,1.1c0.3,0.4,0.5,0.8,0.8,1.2c0.4,0.6,0.5,1.3,0.4,1.9
	c-0.1,0.6-0.6,1.2-1.2,1.6c-0.4,0.2-0.9,0.4-1.4-0.1c-0.5-0.6-1-1.2-1.5-1.7c-0.5-0.5-0.6-1.1-0.6-1.5c0-0.4-0.1-0.6-0.5-0.8
	c-0.9,0.7-1.1,0.7-2.1,0c-0.4-0.3-0.7-0.2-1.1-0.1c-0.1,0-0.2,0-0.3,0.1c0,0.3-0.1,0.7-0.4,0.9c-0.3,0.3-0.8,0.3-1.1,0.2
	c-0.4,0-0.9-0.1-1.3-0.1c-0.4,0-0.9-0.1-1.3-0.1c-0.5,0-1.1,0-1.5,0.3c-0.3,0.3-0.7,0.4-1.1,0.6c-0.1,0-0.2,0.1-0.3,0.1
	c-0.5,0.2-0.6,0.8-0.4,1.2c0.3,0.9,0.2,1.3-0.6,1.8l-0.1,0l-0.4,0l-1.5-0.6c-0.4-0.2-0.9-0.5-1.2-1c-0.4-0.7-0.8-1.4-1.2-2
	c-0.1-0.1-0.2-0.3-0.3-0.4c-1,0.5-1.1,0.5-2.1,0c-0.1,0-0.1,0-0.2-0.1h-0.1l-0.1,0c-0.6-0.2-0.8-0.7-1.1-1.1
	c-0.2-0.5-0.4-0.9-0.7-1.4c-0.1-0.1-0.4-0.1-0.5,0c-0.5,0.7-1.2,0.4-1.5,0.3c-2.1-0.8-4.3-1.6-6.5-2.4c-0.7-0.2-1.1-0.6-1.2-1.3
	c0-0.1-0.1-0.2-0.2-0.3c-0.2-0.2-0.4-0.2-0.6-0.3c-0.2-0.1-0.5-0.2-0.7-0.4c-0.3-0.1-0.5-0.6-0.6-0.7c-0.2-0.8-0.3-1.6-0.4-2.4
	c0-0.2,0-0.5-0.1-0.8c0-0.5,0-0.9-0.2-1.4c-0.2-0.3-0.3-0.7-0.3-1c0-0.2-0.1-0.4-0.2-0.6c0-0.1-0.1-0.2-0.2-0.3
	c0-0.1-0.1-0.2-0.1-0.3l0-0.1l0-0.5c0-0.1,0.1-0.2,0.2-0.3c0.2-0.3,0.3-0.7,0.4-0.9l0-0.1c0.1-0.7,0.2-1.5,0.6-2.2
	c0.2-0.4,0.6-1,0.8-1.6c0.1-0.3,0.1-0.5,0.1-0.8c0-0.2,0-0.4,0-0.6c0-0.2-0.1-0.4-0.1-0.6c0,0,0-0.1,0-0.2c-0.1-0.5-0.3-1.4,0.7-1.7
	l0.1,0h0.4l0.1,0.1c0.1,0.1,0.3,0.3,0.5,0.4c0.1,0.1,0.2,0.1,0.3,0.2c0.3-0.3,0.6-0.6,1.2-0.4c0.1,0,0.2,0.1,0.4,0.1
	c1-2.1,3.1-3.6,5.5-3.6c3.2,0,5.7,2.5,6,5.6c2.2,0.1,4.5,0.2,6.8,0.3c0.3,0,0.5,0,0.8,0.1c0.5,0.2,1,0.5,1.7,0.4l0.5,0
	c0.4,0.1,0.7,0.2,0.8,0.5c0.1,0.2,0.2,0.4,0.1,0.7c0.4-0.1,0.7-0.1,1,0c0.1,0,0.2,0.1,0.4,0.1c0.4,0.1,0.7,0.2,1.1,0.1l0.8,0
	c0.6,0,1.1,0.4,1.1,1c0,0.2,0,0.2,0.2,0.3c0.3,0.1,0.5,0.2,0.6,0.4c0.1,0.2,0.2,0.5,0.1,0.7c-0.1,0.2-0.2,0.3,0.2,0.6l0.3,0.3
	c0.3,0.3,0.4,0.5,0.4,0.8c0.1-0.1,0.3-0.2,0.4-0.3l0,0c0,0,0-0.1,0-0.1c0-0.7,0.1-1.1,1-1.2c0.2-0.1,0.5-0.1,0.7-0.1
	c0.1-0.5,0.2-1.1,0.4-1.5c0.1-0.3,0.4-0.6,0.9-0.8c0.3-0.1,0.6-0.2,0.9-0.3c0.3-0.1,0.6-0.1,0.9-0.2c0.5-0.2,0.8-0.3,0.8-0.8
	c0-0.5,0.1-1,0.2-1.4c0.1-0.5,0.5-0.8,1.1-0.8h0.9c0.7,0,1,0.1,1.3,0.9c0.2,0.5,0.5,1.1,0.8,1.5C443.2,631.5,443.1,632,442.3,632.5z
	"/>
<path class="st1" d="M414.4,629.8c0,0.6-0.2,1.3-0.4,1.8c-1,2.4-2.8,4.2-4.5,5.7c0,0-0.1,0.1-0.1,0.1c-0.1,0-0.1,0-0.2-0.1l0,0
	c-0.1-0.1-0.2-0.2-0.4-0.3l-0.8,0.3c-0.1-0.4-0.3-0.7-0.4-1.1l0.3-0.1c-1.3-1.3-2.5-2.7-3.2-4.5c-0.2-0.5-0.3-1-0.3-1.8
	c0-2.7,2.3-5,5-5C412.2,624.8,414.4,627,414.4,629.8z M423.7,642.4c0.3,0.1,0.7,0.2,1,0.3l0.4-0.9c-0.3-0.2-0.7-0.3-1.1-0.4
	L423.7,642.4z M425.6,643.2c0.3,0.2,0.6,0.4,0.9,0.6l0.7-0.9c-0.3-0.3-0.6-0.5-1-0.7L425.6,643.2z M428.2,643.7l-0.7,0.8
	c0.2,0.2,0.4,0.5,0.6,0.8l0.9-0.6C428.7,644.3,428.5,644,428.2,643.7z M429.6,639.9c0.6,0,1.2-0.6,1.2-1.2s-0.5-1.2-1.2-1.2
	s-1.2,0.6-1.2,1.2S428.9,639.9,429.6,639.9z M429.2,648.2c0.1,0.4,0.2,0.7,0.2,1.1l1.1-0.1c-0.1-0.4-0.1-0.8-0.2-1.2L429.2,648.2z
	 M429.5,645.7l-1,0.5c0.2,0.3,0.3,0.6,0.4,0.9l1-0.3C429.8,646.4,429.7,646.1,429.5,645.7z M421.5,642c0.4,0.1,0.8,0.1,1.1,0.2
	l0.2-1.1c-0.4-0.1-0.8-0.2-1.2-0.2L421.5,642z M419.3,641.8c0.4,0.1,0.8,0.1,1.1,0.1l0.1-1.1c-0.4-0.1-0.8-0.1-1.2-0.1V641.8z
	 M419.3,646.5C419.3,646.5,419.3,646.5,419.3,646.5c0-0.7-0.5-1.2-1.2-1.2c-0.7,0-1.2,0.5-1.2,1.2c0,0,0,0,0,0.1c0,0,0,0,0,0
	c0,0.6,0.5,1.2,1.2,1.2C418.8,647.8,419.4,647.2,419.3,646.5C419.3,646.6,419.3,646.6,419.3,646.5z M414.7,640.7v1.1
	c0.4,0,0.8,0,1.2,0l-0.1-1.1C415.4,640.7,415.1,640.7,414.7,640.7z M412.6,640.5l-0.3,1c0.4,0.1,0.7,0.2,1,0.2c0.1,0,0.2,0,0.3,0
	v-1.1c0,0-0.1,0-0.2,0C413.1,640.6,412.9,640.6,412.6,640.5z M410.2,640.3c0.3,0.3,0.6,0.5,1,0.7l0.5-0.9c-0.3-0.2-0.5-0.4-0.8-0.6
	L410.2,640.3z M408.6,638.4c0.2,0.3,0.5,0.7,0.7,1l0.8-0.6c-0.2-0.3-0.4-0.6-0.6-0.9L408.6,638.4z M406.5,641.1
	c-0.9,0-1.6,0.7-1.6,1.6s0.7,1.6,1.6,1.6c0.9,0,1.6-0.7,1.6-1.6S407.4,641.1,406.5,641.1z M418.2,640.7c-0.3,0-0.7,0-1.1,0v1.1
	c0.3,0,0.7,0,1.1,0V640.7z"/>
<path class="st2" d="M409.9,630.1c-0.8-0.3-1.1-0.5-1.1-0.8c0-0.2,0.2-0.5,0.8-0.5c0.6,0,1.1,0.2,1.3,0.3l0.3-1
	c-0.3-0.1-0.7-0.3-1.3-0.3V627h-1v0.8c-1,0.2-1.5,0.8-1.5,1.6c0,0.9,0.6,1.3,1.6,1.6c0.7,0.2,1,0.4,1,0.8c0,0.3-0.3,0.6-0.9,0.6
	s-1.1-0.2-1.5-0.4l-0.3,1c0.3,0.2,0.9,0.4,1.5,0.4v0.8h0.9v-0.9c1-0.2,1.6-0.8,1.6-1.6C411.3,630.9,410.9,630.5,409.9,630.1z"/>
</svg>
